<?xml version="1.0" encoding="iso-8859-1"?>
<!-- Generator: Adobe Illustrator 19.0.0, SVG Export Plug-In . SVG Version: 6.00 Build 0)  -->
<svg version="1.1" id="Layer_1" xmlns="http://www.w3.org/2000/svg" xmlns:xlink="http://www.w3.org/1999/xlink" x="0px" y="0px"
	 viewBox="0 0 511.999 511.999" style="enable-background:new 0 0 511.999 511.999;" xml:space="preserve" fill="#c1920f">
<g>
	<g>
		<path d="M300.115,164.006c3.864,0.726,8.249,1.2,13.116,1.2c17.145,0,40.254-5.883,67.481-27.351
			c32.655-25.747,48.07-88.054,48.71-90.694c0.586-2.417-0.045-4.968-1.69-6.833s-4.097-2.814-6.568-2.53
			c-73.178,8.272-111.079,35.86-129.987,57.545c-3.481,3.993-6.461,7.935-9.025,11.742V7.616c0-4.207-3.41-7.616-7.616-7.616
			h-25.009c-4.206,0-7.616,3.409-7.616,7.616v118.09c-2.603-4.235-5.625-8.602-9.153-12.986
			c-18.465-22.944-54.584-50.63-121.794-52.238c-2.172-0.025-4.292,0.838-5.776,2.446c-1.485,1.608-2.207,3.777-1.981,5.952
			c0.25,2.411,6.609,59.384,49.451,89.778c17.081,12.119,37.381,18.196,60.636,18.196c9.092,0,18.639-0.936,28.618-2.797v77.904
			c-4.058-5.679-9.12-11.829-15.423-18.109c-21.631-21.556-62.725-48.982-135.655-57.226c-2.703-0.308-5.365,0.854-6.982,3.043
			c-1.617,2.188-1.943,5.074-0.856,7.569c1.139,2.612,28.258,64.275,60.355,89.583c27.229,21.47,50.336,27.351,67.481,27.351
			c4.866,0,9.253-0.474,13.116-1.2c7.178-1.349,13.194-3.656,17.961-6.058v89.791c-2.603-4.235-5.625-8.604-9.153-12.987
			c-18.465-22.944-54.584-50.631-121.794-52.238c-2.155-0.051-4.292,0.839-5.776,2.446c-1.485,1.608-2.207,3.777-1.981,5.952
			c0.25,2.411,6.609,59.384,49.451,89.778c17.081,12.119,37.381,18.196,60.636,18.196c9.092,0,18.639-0.936,28.618-2.797v69.327
			c0,4.207,3.41,7.616,7.616,7.616h25.009c4.206,0,7.616-3.409,7.616-7.616v-84.878c9.979,1.86,19.524,2.797,28.618,2.797
			c23.251,0,43.557-6.078,60.636-18.196c42.842-30.396,49.2-87.367,49.45-89.778c0.226-2.176-0.496-4.344-1.98-5.952
			c-1.486-1.608-3.561-2.501-5.777-2.446c-67.21,1.609-103.329,29.296-121.794,52.238c-3.528,4.383-6.549,8.752-9.152,12.986
			v-87.219c9.979,1.86,19.525,2.797,28.619,2.797c23.251,0,43.556-6.078,60.635-18.195c42.842-30.396,49.2-87.367,49.45-89.778
			c0.226-2.176-0.496-4.344-1.98-5.952c-1.486-1.608-3.561-2.477-5.777-2.446c-67.21,1.608-103.329,29.296-121.794,52.238
			c-3.528,4.383-6.549,8.751-9.152,12.985v-77.635C286.921,160.35,292.937,162.657,300.115,164.006z M411.526,54.417
			c-5.684,18.284-19.171,54.86-40.245,71.476c-37.802,29.806-65.132,26.044-79.611,19.787l37.428-21.761
			c3.637-2.114,4.87-6.776,2.756-10.412c-2.114-3.638-6.778-4.871-10.412-2.756l-35.149,20.436
			C295.589,109.338,324.522,67.359,411.526,54.417z M199.96,144.655l27.744,16.13c-26.234,2.894-48.424-1.95-66.148-14.488
			c-27.937-19.767-38.245-54.09-41.67-70.183c44.333,2.814,78.119,18.119,100.524,45.565c7.688,9.417,12.736,18.839,16.011,26.555
			l-28.805-16.747c-3.637-2.117-8.299-0.879-10.412,2.756C195.09,137.879,196.323,142.542,199.96,144.655z M196.906,271.386
			l34.615,13.534c-14.722,5.972-41.826,9.043-78.738-20.06c-20.919-16.493-40.486-52.247-49.924-71.253
			c59.417,9.275,93.609,32.116,112.143,50.31c9.796,9.615,16.289,18.905,20.474,26.192l-33.023-12.911
			c-3.918-1.531-8.335,0.403-9.867,4.32C191.055,265.436,192.988,269.853,196.906,271.386z M199.96,405.808l27.519,15.998
			c-26.135,2.842-48.249-2.008-65.922-14.512c-27.937-19.767-38.245-54.09-41.67-70.183c44.333,2.813,78.119,18.119,100.524,45.565
			c7.755,9.5,12.825,19.006,16.097,26.76l-28.892-16.798c-3.637-2.116-8.299-0.879-10.412,2.756
			C195.09,399.033,196.323,403.695,199.96,405.808z M266.92,496.767h-9.776v-214.08v-0.007V15.233h9.776V496.767z M303.654,367.126
			c22.407-27.45,56.201-42.756,100.543-45.566c-3.39,16.058-13.627,50.275-41.603,70.124c-18.837,13.364-42.724,18.019-71.159,13.92
			l35.15-20.436c3.637-2.113,4.87-6.776,2.756-10.412c-2.113-3.639-6.779-4.87-10.412-2.756l-29.136,16.94
			C293.013,382.252,297.48,374.688,303.654,367.126z M303.654,231.555c22.407-27.45,56.201-42.756,100.543-45.565
			c-3.39,16.058-13.627,50.274-41.603,70.123c-18.929,13.43-42.961,18.066-71.582,13.859l35.574-20.681
			c3.637-2.113,4.87-6.776,2.756-10.412c-2.113-3.638-6.778-4.872-10.412-2.756l-28.932,16.821
			C293.201,246.361,297.611,238.956,303.654,231.555z"/>
	</g>
</g>
<g>
</g>
<g>
</g>
<g>
</g>
<g>
</g>
<g>
</g>
<g>
</g>
<g>
</g>
<g>
</g>
<g>
</g>
<g>
</g>
<g>
</g>
<g>
</g>
<g>
</g>
<g>
</g>
<g>
</g>
</svg>
